<?xml version="1.0" encoding="UTF-8" standalone="no"?>
<!-- PUMP text as paths — same viewBox as other geometry SVGs.
     No opacity here; controlled by u_textOpacity uniform in shader. -->
<svg viewBox="0 0 100 100" version="1.1" xmlns="http://www.w3.org/2000/svg">
  <path fill="#00e5ff"
    d="m 41.846987,29.99 q 0,0.567 -0.301,0.84 -0.301,0.266 -0.889,0.266 h -0.728 V 33 h -0.609 v -4.9 h 1.323 q 0.595,0 0.896,0.266 0.308,0.259 0.308,0.826 z m -0.609,-0.861 q 0,-0.266 -0.126,-0.385 -0.119,-0.119 -0.385,-0.119 h -0.798 v 1.946 h 0.798 q 0.266,0 0.385,-0.119 0.126,-0.126 0.126,-0.392 z m 6.966007,2.681 q 0,0.595 -0.329,0.896 -0.322,0.294 -0.931,0.294 h -0.175 q -0.609,0 -0.938,-0.294 -0.322,-0.301 -0.322,-0.896 V 28.1 h 0.609 v 3.843 q 0,0.217 0.161,0.371 0.161,0.154 0.42,0.154 h 0.315 q 0.259,0 0.42,-0.154 0.161,-0.154 0.161,-0.371 V 28.1 h 0.609 z M 53.42,31.355 H 52.839 L 52.153,28.604 V 33 h -0.532 v -4.9 h 0.973 l 0.56,2.506 0.567,-2.506 h 0.945 V 33 H 54.12 v -4.396 z m 7.267006,-1.365 q 0,0.567 -0.301,0.84 -0.301,0.266 -0.889,0.266 h -0.728 V 33 h -0.609 v -4.9 h 1.323 q 0.595,0 0.896,0.266 0.308,0.259 0.308,0.826 z m -0.609,-0.861 q 0,-0.266 -0.126,-0.385 -0.119,-0.119 -0.385,-0.119 h -0.798 v 1.946 h 0.798 q 0.266,0 0.385,-0.119 0.126,-0.126 0.126,-0.392 z"/>
</svg>
