<?xml version="1.0" encoding="UTF-8" standalone="no"?>
<!-- RUG text as paths — same viewBox as other geometry SVGs.
     No opacity here; controlled by u_textOpacity uniform in shader. -->
<svg viewBox="0 0 100 100" version="1.1" xmlns="http://www.w3.org/2000/svg">
  <path fill="#ff2d6b"
    d="M 41.92899,71.97 V 74 h -0.609 v -4.9 h 1.316 q 0.595,0 0.896,0.266 0.308,0.259 0.308,0.826 v 0.672 q 0,0.791 -0.63,0.987 l 0.973,2.149 h -0.665 l -0.903,-2.03 z m 1.302,-1.841 q 0,-0.266 -0.126,-0.385 -0.119,-0.119 -0.385,-0.119 h -0.791 v 1.82 h 0.791 q 0.266,0 0.385,-0.119 0.126,-0.126 0.126,-0.392 z m 8.113007,2.681 q 0,0.595 -0.329,0.896 -0.322,0.294 -0.931,0.294 h -0.175 q -0.609,0 -0.938,-0.294 -0.322,-0.301 -0.322,-0.896 V 69.1 h 0.609 v 3.843 q 0,0.217 0.161,0.371 0.161,0.154 0.42,0.154 h 0.315 q 0.259,0 0.42,-0.154 0.161,-0.154 0.161,-0.371 V 69.1 h 0.609 z M 57.308003,74 q -0.609,0 -0.938,-0.294 -0.322,-0.301 -0.322,-0.896 v -2.52 q 0,-0.595 0.322,-0.889 0.329,-0.301 0.938,-0.301 h 0.987 v 0.532 h -1.057 q -0.259,0 -0.42,0.154 -0.161,0.154 -0.161,0.371 v 2.786 q 0,0.217 0.161,0.371 0.161,0.154 0.42,0.154 h 0.686 v -1.519 h -0.609 v -0.525 h 1.19 V 74 Z"/>
</svg>
